<?xml version="1.0" standalone="no"?>
<!DOCTYPE svg PUBLIC "-//W3C//DTD SVG 20010904//EN"
 "http://www.w3.org/TR/2001/REC-SVG-20010904/DTD/svg10.dtd">
<svg version="1.0" xmlns="http://www.w3.org/2000/svg"
 width="500.000000pt" height="500.000000pt" viewBox="0 0 500.000000 500.000000"
 preserveAspectRatio="xMidYMid meet">

<g transform="translate(0.000000,500.000000) scale(0.100000,-0.100000)"
fill="#000000" stroke="none">
<path d="M2275 3955 c-222 -41 -398 -110 -575 -226 l-106 -70 21 -67 c16 -55
29 -76 72 -117 46 -45 83 -108 71 -120 -11 -11 -102 34 -114 57 -9 17 -33 32
-72 47 -33 11 -75 32 -94 45 l-34 23 -62 -78 c-119 -150 -201 -296 -256 -460
-111 -333 -110 -568 3 -902 87 -257 280 -506 526 -679 84 -59 301 -167 406
-202 116 -39 208 -50 404 -50 155 -1 193 3 273 23 50 12 92 26 92 29 -1 18
-23 105 -44 177 -14 44 -36 118 -50 165 -14 47 -32 120 -41 164 -8 43 -23 93
-34 111 -20 35 -32 68 -106 309 -26 81 -62 183 -81 226 -19 43 -34 86 -34 94
0 9 -7 19 -14 22 -14 5 -40 70 -48 117 -6 35 -233 109 -567 187 -82 19 -95 20
-108 7 -13 -13 -9 -23 29 -81 l43 -66 48 0 c47 0 95 -18 130 -48 15 -14 26
-13 110 7 50 13 97 27 103 32 11 9 83 -27 84 -42 0 -4 -58 -26 -129 -50 l-129
-43 -5 -39 c-3 -21 -12 -49 -21 -62 -23 -35 -87 -65 -138 -65 -42 0 -44 -2
-75 -59 -29 -55 -30 -60 -15 -75 12 -12 17 -34 17 -71 l0 -55 55 -29 c30 -16
94 -43 142 -61 81 -30 88 -31 110 -16 12 9 35 16 50 16 31 0 68 31 68 58 0 22
149 464 161 476 5 6 17 -9 29 -36 l20 -46 -24 -83 c-14 -46 -47 -149 -75 -228
l-50 -145 39 -42 c50 -55 61 -112 32 -176 -29 -66 -72 -93 -149 -93 -99 0
-155 54 -163 157 l-5 61 -100 42 c-55 23 -119 51 -142 63 l-42 22 -33 -20
c-95 -57 -213 22 -211 142 1 81 59 138 139 138 39 0 43 3 73 52 l33 52 -21 43
c-26 55 -27 93 -1 144 l21 40 -43 59 c-41 56 -45 58 -85 57 -75 -3 -143 70
-143 154 0 40 6 55 30 83 74 84 200 66 248 -37 20 -43 23 -45 99 -65 43 -11
110 -25 150 -31 39 -6 91 -19 115 -30 41 -17 195 -71 205 -71 2 0 3 24 2 53
-2 82 -1 95 11 77 5 -8 10 -25 10 -37 0 -18 20 -32 116 -77 64 -31 120 -56
125 -56 5 0 9 15 9 34 0 18 11 64 25 100 17 45 25 87 25 129 0 64 28 157 56
189 20 22 54 30 60 14 7 -17 -31 -164 -56 -219 -10 -23 -32 -98 -48 -167 l-30
-125 26 -20 c14 -11 40 -35 56 -53 17 -18 49 -44 73 -58 l43 -25 31 23 c43 32
114 30 166 -3 l38 -26 73 34 c69 32 72 35 72 69 0 129 167 182 248 79 44 -55
19 -169 -43 -197 -16 -7 -24 -17 -21 -27 2 -9 10 -39 16 -68 10 -46 15 -53 42
-58 41 -9 104 -69 118 -111 25 -75 -12 -154 -88 -188 -38 -17 -43 -17 -89 -2
-98 33 -143 80 -143 151 0 14 -6 25 -13 25 -7 0 -50 18 -94 39 -66 32 -84 37
-93 26 -6 -7 -25 -19 -43 -26 -18 -7 -33 -13 -34 -13 -1 -1 7 -26 17 -56 20
-59 14 -90 -19 -90 -13 0 -24 17 -41 63 -16 43 -36 74 -65 102 -54 50 -75 92
-75 147 0 43 0 43 -67 78 -56 29 -69 40 -75 68 -7 25 -14 32 -33 32 -14 0 -25
-4 -25 -10 0 -5 13 -56 30 -112 16 -57 39 -143 50 -193 24 -106 116 -417 135
-460 7 -16 23 -73 35 -125 26 -115 88 -274 139 -355 35 -56 39 -60 72 -58 37
3 243 102 337 163 78 50 249 205 269 244 15 28 14 31 -3 41 -10 5 -36 28 -59
49 -22 21 -77 63 -122 92 -108 71 -203 164 -167 164 26 0 174 -64 301 -131 83
-43 154 -79 157 -79 2 0 30 44 61 99 58 102 117 272 152 434 26 121 24 372 -4
487 -54 217 -106 345 -205 504 -132 211 -259 334 -491 475 -127 77 -349 152
-534 180 -95 15 -340 12 -428 -4z m400 -120 c189 -29 341 -82 505 -178 117
-69 181 -120 280 -223 103 -107 159 -186 224 -319 157 -322 185 -586 94 -915
-28 -101 -70 -207 -108 -269 l-32 -51 -31 16 c-18 9 -34 18 -35 20 -2 1 12 31
31 66 83 150 141 385 141 568 -1 137 -21 242 -75 394 -49 138 -98 229 -183
339 -177 229 -486 410 -791 464 -108 18 -355 13 -450 -11 -163 -41 -300 -99
-416 -179 l-65 -44 -21 38 -21 38 37 24 c293 195 599 270 916 222z m-119 -241
c46 -22 76 -66 82 -121 6 -53 -6 -46 212 -121 80 -27 168 -61 195 -75 77 -39
99 -42 133 -17 65 48 157 35 216 -31 32 -35 36 -45 36 -94 0 -69 -13 -98 -61
-131 -56 -39 -116 -43 -172 -11 l-45 25 -79 -43 c-43 -23 -124 -67 -180 -98
-57 -30 -132 -69 -168 -86 l-65 -30 0 44 0 44 224 115 224 116 -1 49 -1 48
-80 26 c-45 14 -92 29 -106 33 -14 4 -47 18 -73 31 -27 13 -89 38 -137 54
l-88 30 -25 -25 c-14 -14 -36 -28 -50 -31 l-24 -7 -5 -244 c-2 -134 -7 -247
-11 -250 -9 -9 -109 29 -115 44 -2 7 7 26 22 41 l26 27 0 187 0 186 -27 15
c-16 8 -39 26 -52 40 -14 14 -35 26 -47 26 -30 0 -40 17 -20 39 8 9 20 41 27
70 11 55 55 116 93 131 35 14 106 11 142 -6z m332 -87 c-2 -26 -8 -33 -29 -35
-32 -4 -53 20 -45 52 7 27 32 37 59 24 13 -7 17 -18 15 -41z m-1363 -218
c-126 -165 -200 -327 -246 -539 -25 -118 -27 -291 -4 -405 23 -113 80 -279
121 -352 74 -133 196 -274 334 -385 51 -41 248 -147 330 -177 156 -57 214 -66
427 -66 l203 0 10 -28 c8 -25 6 -29 -18 -39 -41 -16 -301 -22 -390 -9 -217 33
-413 114 -595 245 -138 100 -316 291 -348 373 -4 12 -19 39 -32 60 -72 113
-147 399 -147 558 0 299 127 638 324 866 l31 36 38 -19 37 -19 -75 -100z
m1489 125 c18 -7 22 -59 6 -69 -25 -16 -55 47 -33 68 8 8 8 8 27 1z m-1269
-108 c19 -8 35 -18 35 -21 0 -3 -15 1 -34 9 -19 8 -37 12 -40 8 -3 -3 -6 0 -6
6 0 15 3 15 45 -2z m480 -26 c3 -11 24 -39 46 -62 60 -65 61 -97 4 -98 -23 0
-125 109 -125 134 0 16 37 46 57 46 6 0 14 -9 18 -20z m-631 -136 c10 -25 7
-34 -9 -28 -8 4 -15 15 -15 25 0 23 16 25 24 3z m1282 -39 l29 -15 -32 0 c-23
0 -33 5 -33 15 0 18 1 18 36 0z m94 -406 c0 -25 -23 -99 -31 -99 -31 0 -194
68 -185 77 4 4 46 12 94 19 117 15 122 16 122 3z m-1402 -127 c3 -32 2 -33
-30 -30 -29 3 -33 7 -36 36 -3 32 -2 33 30 30 29 -3 33 -7 36 -36z m-77 -72
c27 -15 26 -66 -2 -75 -43 -14 -80 52 -41 74 21 13 20 13 43 1z m2077 -97 c3
-27 -1 -33 -22 -39 -33 -8 -46 2 -46 35 0 35 8 43 40 39 20 -2 26 -9 28 -35z
m-1403 7 c-3 -5 -2 -10 3 -10 6 0 8 -9 5 -21 -4 -14 -12 -19 -27 -17 -11 2
-20 9 -19 15 2 8 -4 10 -15 6 -15 -6 -15 -4 2 15 19 22 63 32 51 12z m335
-267 c0 -9 -17 -13 -50 -13 -59 0 -62 10 -28 74 40 74 41 74 60 10 10 -33 18
-65 18 -71z m495 -160 c40 -41 41 -45 19 -67 -18 -19 -38 -20 -65 -6 -15 8
-19 22 -19 60 0 62 15 65 65 13z m-527 8 c8 -5 12 -21 10 -37 -2 -24 -8 -29
-34 -32 -38 -4 -59 18 -50 53 5 19 13 25 34 25 15 0 33 -4 40 -9z m-664 -177
c19 -19 20 -36 4 -52 -30 -30 -75 0 -64 43 7 29 36 33 60 9z m837 -34 c9 -30
9 -50 1 -76 -14 -46 0 -92 37 -124 35 -29 52 -90 26 -90 -39 0 -86 31 -116 77
-28 44 -30 54 -27 118 3 55 9 77 28 103 13 17 27 32 31 32 5 0 14 -18 20 -40z
m533 24 c30 -30 13 -74 -29 -74 -60 0 -59 88 2 90 6 0 19 -7 27 -16z m335 -75
c2 -17 -147 -153 -234 -213 -85 -60 -267 -156 -293 -156 -8 0 -32 58 -32 78 0
7 8 12 18 12 28 0 173 74 258 131 43 29 111 85 153 124 l76 73 27 -22 c15 -11
27 -24 27 -27z m-1051 -14 c-3 -3 -9 2 -12 12 -6 14 -5 15 5 6 7 -7 10 -15 7
-18z"/>
<path d="M2426 3509 c-34 -27 -37 -96 -5 -125 33 -30 96 -25 125 9 31 36 30
68 -2 106 -31 38 -78 41 -118 10z"/>
<path d="M3219 3191 c-20 -20 -29 -39 -29 -61 0 -37 47 -90 78 -90 28 0 79 45
84 74 8 39 -16 82 -52 95 -45 15 -48 15 -81 -18z"/>
<path d="M1494 3805 c-10 -25 4 -45 31 -45 20 0 25 5 25 24 0 34 -45 50 -56
21z"/>
<path d="M1295 3785 c-51 -30 -67 -44 -63 -57 4 -12 177 -80 195 -76 8 2 -3
29 -33 81 -25 42 -49 77 -53 76 -3 0 -24 -11 -46 -24z"/>
<path d="M1542 2914 c-28 -19 -30 -74 -4 -97 25 -23 68 -21 92 3 58 58 -20
142 -88 94z"/>
<path d="M3267 2622 c-37 -40 -9 -102 46 -102 26 0 67 40 67 66 0 45 -82 71
-113 36z"/>
<path d="M1770 2543 c-28 -36 -21 -89 15 -120 35 -31 61 -29 96 6 58 58 24
141 -57 141 -24 0 -38 -7 -54 -27z"/>
<path d="M3133 2442 l-71 -35 1 -43 2 -44 84 -40 83 -41 22 23 c12 13 30 28
40 33 18 10 18 13 1 73 -14 50 -24 66 -46 78 -16 8 -29 19 -29 24 0 14 -5 12
-87 -28z"/>
<path d="M2843 2424 c-21 -21 -24 -32 -20 -62 12 -68 73 -96 131 -59 49 32 47
106 -4 132 -43 22 -77 19 -107 -11z"/>
<path d="M3315 2205 c-33 -33 -32 -70 4 -106 50 -50 120 -32 137 37 19 75 -85
126 -141 69z"/>
<path d="M1570 2182 c-48 -39 -21 -132 40 -132 54 0 91 78 58 123 -21 27 -70
32 -98 9z"/>
<path d="M2105 1885 c-18 -17 -25 -35 -25 -63 0 -107 145 -111 166 -4 5 26 1
36 -24 62 -39 38 -83 40 -117 5z"/>
<path d="M3733 1563 c-19 -4 -23 -11 -23 -39 0 -34 0 -34 45 -34 39 0 45 3 45
21 0 28 -18 59 -33 58 -7 -1 -22 -4 -34 -6z"/>
<path d="M3614 1429 c-10 -17 7 -49 25 -49 22 0 45 25 37 38 -8 13 -55 21 -62
11z"/>
<path d="M1280 1353 c-46 -8 -160 -56 -160 -68 0 -18 42 -52 73 -57 23 -4 32
1 55 31 48 61 74 101 65 100 -4 -1 -19 -4 -33 -6z"/>
<path d="M3501 1293 l-33 -4 7 -47 c8 -56 17 -63 70 -60 44 3 44 4 24 81 -5
20 -15 36 -22 35 -7 0 -27 -3 -46 -5z"/>
<path d="M3744 1256 c8 -19 32 -62 55 -96 22 -35 42 -66 43 -70 2 -4 33 -9 70
-12 l67 -4 -2 78 -2 79 -40 10 c-22 6 -70 19 -106 30 -96 28 -103 27 -85 -15z"/>
<path d="M3287 1173 c-23 -23 15 -73 55 -73 24 0 26 65 2 74 -21 8 -49 8 -57
-1z"/>
<path d="M2970 1131 c0 -34 20 -54 52 -49 36 5 36 43 -1 62 -42 22 -51 20 -51
-13z"/>
</g>
</svg>
